<?xml version="1.0" encoding="utf-8"?>
<!-- Generator: Adobe Illustrator 25.3.0, SVG Export Plug-In . SVG Version: 6.00 Build 0)  -->
<svg version="1.1" id="Capa_1" xmlns="http://www.w3.org/2000/svg" xmlns:xlink="http://www.w3.org/1999/xlink" x="0px" y="0px"
	 viewBox="0 0 400 100" style="enable-background:new 0 0 400 100;" xml:space="preserve">
<style type="text/css">
	.st0{fill:#596674;}
	.st1{fill:#565C62;}
	.st2{fill:#84CCE9;}
	.st3{fill:#F9DB60;}
	.st4{fill:#58B68B;}
	.st5{fill:#D8D6D7;}
	.st6{fill:#FC6F71;}
	.st7{fill:#78B6D1;}
	.st8{fill:#E26465;}
	.st9{fill:#46916F;}
	.st10{fill:#B9B7B8;}
	.st11{fill:#E5CA59;}
	.st12{fill:#464C51;}
	.st13{fill:#FB6F71;}
	.st14{fill:#474D51;}
</style>
<g>
	<path d="M155.44,70.29c0,3.26-1.63,4.89-4.89,4.89h-16.68c-3.17,0-4.75-1.63-4.75-4.89V26.61c0-3.28,1.58-4.92,4.75-4.92h16.68
		c3.26,0,4.89,1.64,4.89,4.92v12.51h-7.96V28.55h-10.36v39.75h10.36V57.06h7.96V70.29z"/>
	<path d="M183.57,75.18h-7.49v-1.2c-1.78,0.27-3.55,0.55-5.33,0.82c-2.32,0.34-4.09,0.51-5.3,0.51c-2.85,0-4.27-1.4-4.27-4.2V58.67
		c0-2.85,1.47-4.27,4.41-4.27h10.56v-7.93h-7.49v4.92h-7.08v-6.46c0-2.85,1.47-4.27,4.41-4.27h13.23c2.89,0,4.34,1.42,4.34,4.27
		V75.18z M176.16,68.96v-9.26h-7.49v9.54L176.16,68.96z"/>
	<path d="M197.07,75.18h-7.69V21.68h7.69V75.18z"/>
	<path d="M225.21,70.9c0,2.85-1.45,4.27-4.34,4.27h-13.57c-2.94,0-4.41-1.42-4.41-4.27V44.93c0-2.85,1.47-4.27,4.41-4.27h13.57
		c2.89,0,4.34,1.42,4.34,4.27v8.2h-7.62v-5.95h-7.01v21.5h7.01v-6.6h7.62V70.9z"/>
	<path d="M253.78,75.18h-7.79v-1.2c-1.8,0.3-3.61,0.59-5.43,0.89c-2.21,0.34-4.03,0.51-5.47,0.51c-2.85,0-4.27-1.42-4.27-4.27V40.65
		h7.76v28.03l7.42-0.17V40.65h7.79V75.18z"/>
	<path d="M267.35,75.18h-7.69V21.68h7.69V75.18z"/>
	<path d="M300.67,75.18h-7.93l-1.61-10.15h-10.01l-1.61,10.15h-7.9v-0.14l10.36-53.42h8.41L300.67,75.18z M290.01,58.15l-3.9-24.13
		l-3.93,24.13H290.01z"/>
	<path d="M327.78,68.24c0,2.8-1,4.76-3.01,5.88c-1.46,0.8-3.67,1.2-6.63,1.2c-0.68,0-1.65-0.02-2.89-0.07
		c-1.24-0.05-2.14-0.07-2.68-0.07v12.61h-7.83V40.65h7.83v1.26c1.82-0.27,3.65-0.56,5.47-0.85c2.3-0.36,4.12-0.55,5.47-0.55
		c2.85,0,4.27,1.4,4.27,4.2V68.24z M319.92,66.08v-18.9l-7.35,0.14v21.36h4.85C319.08,68.68,319.92,67.82,319.92,66.08z"/>
	<path d="M356.35,68.24c0,2.8-1,4.76-3.01,5.88c-1.46,0.8-3.67,1.2-6.63,1.2c-0.68,0-1.65-0.02-2.89-0.07
		c-1.24-0.05-2.14-0.07-2.68-0.07v12.61h-7.83V40.65h7.83v1.26c1.82-0.27,3.65-0.56,5.47-0.85c2.3-0.36,4.12-0.55,5.47-0.55
		c2.85,0,4.27,1.4,4.27,4.2V68.24z M348.49,66.08v-18.9l-7.35,0.14v21.36H346C347.66,68.68,348.49,67.82,348.49,66.08z"/>
</g>
<g>
	<path class="st0" d="M104.51,91.95c-18.94,0-37.88,0-56.82,0c-2.37-0.59-3.2-1.66-3.2-4.23c-0.01-25.1-0.01-50.21,0-75.31
		c0-0.52-0.02-1.03,0.13-1.54c0.47-1.62,1.45-2.61,3.11-2.79c1.18-0.03,2.35-0.01,3.53-0.01c17.44,0,34.89,0,52.33,0
		c0.31,0,0.62-0.01,0.94,0.03c2.03,0.27,3.22,1.59,3.33,3.74c0.02,0.35,0.01,0.71,0.01,1.06c0,24.76,0,49.53,0,74.29
		c0,0.57,0.04,1.15-0.09,1.71C107.37,90.71,106.38,91.84,104.51,91.95z"/>
	<path class="st1" d="M42.67,91.95c-1.18-0.63-2.23-1.37-2.57-2.84c-0.08-0.35-0.1-0.7-0.1-1.05c0-25.35,0-50.7,0-76.05
		c0-2.25,1.54-3.86,3.69-3.87c1.33,0,2.66,0.02,4,0.02c-1.06,0.46-2.03,1-2.49,2.21c-0.21,0.54-0.34,1.08-0.34,1.66
		c0,25.34,0,50.68,0.01,76.02c0,1.65,0.71,2.87,2.19,3.56c0.21,0.1,0.42,0.22,0.63,0.33C46.02,91.95,44.34,91.95,42.67,91.95z"/>
	<path class="st2" d="M95.91,16.63c1.92,0.09,3.4,1.53,3.43,3.53c0.05,3.73,0.05,7.47,0,11.2c-0.02,1.82-1.23,3.16-2.95,3.49
		c-0.31,0.11-0.62,0.05-0.93,0.05c-12.94,0-25.88-0.05-38.82,0.04c-3.09,0.02-4.05-1.92-4.12-4.25c-0.07-2.26-0.04-4.53-0.01-6.79
		c0.01-1.44-0.13-2.89,0.15-4.32c0.4-2.01,1.56-3.01,3.51-3.01c13.04,0,26.09,0,39.13,0C95.5,16.57,95.71,16.53,95.91,16.63z"/>
	<path class="st3" d="M84.26,40.88c3.89,0,7.78-0.04,11.67,0.01c1.85,0.02,3.37,1.56,3.4,3.48c0.06,3.78,0.06,7.57,0,11.35
		c-0.03,1.92-1.55,3.46-3.4,3.48c-3.89,0.04-7.78,0.01-11.67,0.01c-2.35-0.54-3.19-1.64-3.2-4.21c-0.01-3.38,0-6.76,0-10.14
		c0-0.81,0.15-1.56,0.52-2.28C82.15,41.45,83.11,41.01,84.26,40.88z"/>
	<path class="st4" d="M56.16,65.12c3.6,0,7.2-0.02,10.81,0c2.4,0.01,3.93,1.61,3.94,4.09c0.01,3.43,0.02,6.86,0,10.29
		c-0.01,2.26-1.37,3.79-3.45,3.97c-0.44,0.11-0.89,0.05-1.33,0.05c-3.3,0.01-6.59,0.01-9.89,0c-2.1,0-3.26-1.03-3.6-3.18
		c-0.09-0.54-0.15-1.08-0.15-1.63c0-2.97,0-5.95,0-8.92c0-0.3,0-0.6,0.04-0.9C52.82,66.45,53.79,65.45,56.16,65.12z"/>
	<path class="st5" d="M55.7,40.88c3.92,0,7.84-0.04,11.75,0c1.87,0.02,3.39,1.56,3.43,3.56c0.07,3.73,0.07,7.46,0,11.19
		c-0.04,2-1.55,3.54-3.43,3.56c-3.92,0.04-7.83,0.01-11.75,0c-2.36-0.28-3.11-2.02-3.17-4.05c-0.09-3.41-0.06-6.82-0.01-10.23
		c0.01-0.73,0.14-1.46,0.46-2.14C53.54,41.6,54.46,41.01,55.7,40.88z"/>
	<path class="st6" d="M96.38,65.24c1.68,0.3,2.93,1.64,2.95,3.4c0.05,3.79,0.06,7.58,0,11.37c-0.03,1.94-1.54,3.37-3.42,3.44
		c-0.73,0.13-1.46,0.05-2.19,0.06c-2.96,0.01-5.91,0.01-8.87,0c-2.4,0-3.78-1.42-3.79-3.95c-0.02-3.49,0-6.98-0.01-10.47
		c0-0.75,0.15-1.45,0.48-2.12c0.58-1.19,1.5-1.78,2.77-1.78c3.95,0,7.9,0,11.85,0C96.23,65.19,96.31,65.22,96.38,65.24z"/>
	<path class="st7" d="M95.91,16.63c-0.37,0.01-0.73,0.04-1.1,0.04c-12.63,0-25.26,0.04-37.89-0.04c-2.41-0.02-3.99,1.56-4.04,4.05
		c-0.06,3.38-0.05,6.76,0,10.14c0.03,1.64,0.64,3.02,2.19,3.77c0.45,0.22,0.91,0.23,1.38,0.23c13.05,0,26.1,0,39.14,0
		c0.26,0,0.52,0.01,0.78,0.02c-0.34,0.18-0.71,0.14-1.08,0.14c-14.43,0-28.86,0-43.3,0c-2.35,0-3.94-1.54-3.98-3.99
		c-0.05-3.49-0.05-6.98,0-10.47c0.04-2.46,1.63-4.01,4.05-4.02c2.77-0.02,5.54,0.01,8.31,0.01c11.45,0,22.9,0,34.35,0
		C95.14,16.52,95.54,16.46,95.91,16.63z"/>
	<path class="st8" d="M96.38,65.24c-3.79,0.01-7.57,0.01-11.36,0.02c-2.15,0-3.57,1.48-3.58,3.75c-0.01,3.57-0.01,7.14,0,10.71
		c0.01,2.15,1.52,3.7,3.57,3.71c3.63,0.01,7.26,0.02,10.89,0.03c-0.26,0.03-0.51,0.09-0.77,0.1c-4.83,0.01-9.67,0.03-14.5,0.03
		c-2.07,0-3.48-1.06-3.97-2.89c-0.09-0.35-0.09-0.7-0.09-1.05c0-3.54-0.01-7.08,0-10.62c0.01-2.28,1.56-3.9,3.76-3.9
		c5.04-0.01,10.08,0,15.13,0C95.77,65.11,96.09,65.09,96.38,65.24z"/>
	<path class="st9" d="M56.16,65.12c-2.47,0.83-3.28,1.99-3.28,4.75c0,3.05-0.02,6.11,0.01,9.16c0.01,1.46,0.3,2.82,1.54,3.75
		c0.62,0.46,1.29,0.67,2.05,0.67c3.66-0.01,7.32,0.01,10.98,0.02c-0.32,0.18-0.66,0.13-1,0.13c-4.7,0-9.4,0.01-14.1,0
		c-2.84,0-4.35-1.58-4.35-4.55c0-3.24-0.02-6.48,0.01-9.72c0.02-2.63,1.58-4.22,4.08-4.22C53.45,65.1,54.81,65.11,56.16,65.12z"/>
	<path class="st10" d="M55.7,40.88c-0.7,0.37-1.41,0.7-1.92,1.36c-0.69,0.87-0.87,1.91-0.88,2.98c-0.02,3.21-0.01,6.43-0.01,9.64
		c0,2.11,0.91,3.57,2.81,4.34c-1.49,0-2.97,0.07-4.46-0.01c-1.76-0.09-3.16-1.72-3.2-3.8c-0.06-3.56-0.07-7.13,0-10.69
		c0.05-2.31,1.54-3.78,3.75-3.84C53.09,40.82,54.39,40.87,55.7,40.88z"/>
	<path class="st11" d="M84.26,40.88c-1.3,0.52-2.34,1.31-2.71,2.81c-0.1,0.4-0.12,0.8-0.12,1.21c0,3.16,0.08,6.31-0.03,9.47
		c-0.08,2.35,0.64,4.03,2.85,4.84c-1.49,0-2.98,0.05-4.47-0.01c-1.67-0.07-3.19-1.69-3.21-3.43c-0.03-3.82-0.03-7.64,0-11.46
		c0.02-1.74,1.54-3.36,3.21-3.43C81.28,40.83,82.77,40.88,84.26,40.88z"/>
	<path class="st12" d="M73.73,30.43c-1.55-0.04-2.78-0.74-3.65-2.12c-0.39-0.62-0.3-1.27,0.2-1.68c0.51-0.42,1.12-0.35,1.61,0.18
		c1.5,1.62,2.14,1.62,3.72-0.03c0.47-0.49,1-0.57,1.55-0.17c0.52,0.37,0.63,1.07,0.26,1.67C76.56,29.65,75.34,30.38,73.73,30.43z"/>
	<path class="st12" d="M64.47,23.25c0,0.35,0.03,0.71-0.01,1.06c-0.07,0.69-0.47,1.08-1.12,1.14c-0.6,0.06-1.14-0.45-1.19-1.15
		c-0.05-0.67-0.05-1.36,0-2.03c0.04-0.7,0.56-1.19,1.16-1.18c0.61,0,1.09,0.48,1.16,1.19C64.5,22.59,64.48,22.92,64.47,23.25
		C64.47,23.25,64.47,23.25,64.47,23.25z"/>
	<path class="st13" d="M84.12,29.09c-0.34,0-0.68,0.03-1.02-0.01c-0.59-0.07-0.96-0.46-1.02-1.07c-0.06-0.61,0.22-1.1,0.79-1.24
		c0.84-0.22,1.72-0.22,2.56,0c0.58,0.15,0.85,0.64,0.79,1.25c-0.06,0.6-0.42,1-1.01,1.07C84.86,29.12,84.49,29.09,84.12,29.09z"/>
	<path class="st12" d="M85.37,23.29c-0.02,0.38,0,0.77-0.07,1.14c-0.12,0.64-0.54,1.03-1.16,1c-0.65-0.02-1.08-0.43-1.12-1.13
		c-0.04-0.68-0.04-1.36,0-2.04c0.03-0.7,0.44-1.12,1.1-1.16c0.67-0.04,1.09,0.37,1.2,1.05c0.06,0.37,0.01,0.76,0.01,1.14
		C85.33,23.29,85.35,23.29,85.37,23.29z"/>
	<path class="st13" d="M63.3,29.1c-0.31,0-0.63,0.02-0.94,0c-0.67-0.05-1.08-0.45-1.12-1.13c-0.04-0.64,0.3-1.12,0.92-1.23
		c0.77-0.14,1.56-0.16,2.34,0.01c0.62,0.13,0.95,0.61,0.9,1.25c-0.05,0.64-0.44,1.04-1.07,1.1C63.98,29.12,63.64,29.09,63.3,29.1
		C63.3,29.1,63.3,29.1,63.3,29.1z"/>
	<path class="st14" d="M87.95,51.27c-0.94,0-1.88,0.02-2.81-0.01c-0.91-0.03-1.37-0.46-1.37-1.21c-0.01-0.76,0.46-1.22,1.35-1.23
		c1.9-0.03,3.81-0.02,5.71,0c0.87,0.01,1.39,0.49,1.39,1.21c0.01,0.72-0.51,1.21-1.37,1.23C89.88,51.29,88.91,51.27,87.95,51.27z"/>
	<path class="st12" d="M57.3,77.79c-0.89-0.01-1.44-1.03-0.94-1.83c0.27-0.43,0.63-0.8,0.99-1.15c0.37-0.35,0.42-0.63,0.02-0.99
		c-0.33-0.3-0.65-0.64-0.92-1c-0.42-0.55-0.39-1.13,0.08-1.62c0.45-0.46,0.99-0.5,1.49-0.09c0.37,0.3,0.71,0.65,1.02,1.01
		c0.33,0.38,0.58,0.35,0.9-0.01c0.3-0.34,0.62-0.67,0.97-0.95c0.52-0.42,1.07-0.46,1.56,0.05c0.47,0.5,0.45,1.07,0.09,1.64
		c-0.36,0.56-1.25,0.9-1.19,1.52c0.05,0.52,0.8,0.94,1.18,1.46c0.39,0.54,0.4,1.14-0.09,1.63c-0.49,0.48-1.05,0.46-1.56,0.02
		c-0.3-0.26-0.6-0.54-0.84-0.86c-0.4-0.54-0.71-0.43-1.11,0.02C58.49,77.15,58.07,77.75,57.3,77.79z"/>
	<path class="st12" d="M59.53,45.63c0.63,0.02,1.07,0.53,1.15,1.31c0.06,0.59-0.24,1.34,0.14,1.73c0.38,0.39,1.1,0.09,1.66,0.15
		c0.79,0.08,1.22,0.51,1.23,1.2c0.01,0.7-0.42,1.13-1.2,1.24c-0.59,0.08-1.36-0.28-1.71,0.19c-0.28,0.39-0.08,1.15-0.13,1.74
		c-0.07,0.77-0.56,1.27-1.19,1.26c-0.67-0.01-1.1-0.54-1.15-1.37c-0.03-0.57,0.23-1.27-0.13-1.66c-0.36-0.39-1.04-0.11-1.58-0.15
		c-0.85-0.07-1.38-0.55-1.36-1.26c0.02-0.68,0.53-1.12,1.34-1.2c0.56-0.06,1.27,0.28,1.64-0.19c0.32-0.41,0.07-1.1,0.1-1.67
		C58.39,46.14,58.86,45.61,59.53,45.63z"/>
	<path class="st12" d="M87.97,70.83c0.94,0,1.88-0.01,2.82,0c0.86,0.01,1.4,0.48,1.42,1.2c0.02,0.75-0.53,1.25-1.44,1.25
		c-1.86,0.01-3.71,0.01-5.57,0c-0.93-0.01-1.45-0.47-1.44-1.23c0.01-0.76,0.53-1.2,1.46-1.22C86.14,70.82,87.05,70.83,87.97,70.83z"
		/>
	<path class="st12" d="M87.96,75.38c0.97,0,1.93-0.01,2.9,0c0.82,0.02,1.32,0.47,1.34,1.17c0.02,0.69-0.48,1.24-1.28,1.26
		c-1.96,0.04-3.92,0.04-5.88,0c-0.83-0.01-1.29-0.51-1.29-1.23c0-0.76,0.48-1.19,1.37-1.2C86.08,75.37,87.02,75.38,87.96,75.38z"/>
</g>
</svg>
